<svg xmlns="http://www.w3.org/2000/svg" viewBox="0 0 1000 1000">
  <path d="M273.03 12.02c-49.45 5.8-99.66 26.24-142.55 57.52-19.43 14.13-53.99 49.96-67.62 70.14C1.31 230.26-7.02 344.3 40.67 441.94c51.21 104.45 152.89 168.29 268.95 168.29 67.36 0 126.15-18.92 178.12-57.53l17.91-13.12L572 605.93l66.61 66.61-13.11 13.88c-22.96 24.22-32.8 10.85 121.1 164.75 73.92 73.92 137.5 135.49 141.29 137.25 5.3 2.27 8.83 2.27 14.13 0 10.35-4.29 85.53-80.74 87.55-88.81 1.01-4.29.25-9.59-2.27-13.88-2.02-4.04-63.58-67.11-137-140.53-150.63-150.11-140.03-142.04-160.47-123.12l-10.85 10.09-66.1-66.1c-36.33-36.33-66.1-67.11-66.1-68.12 0-1.01 4.29-7.82 9.84-15.14 54.75-73.92 69.38-183.68 36.83-274.25C546.02 76.86 413.06-4.63 273.03 12.02zm94.62 69.38c84.52 22.45 149.36 87.3 171.82 171.31 7.82 29.52 8.07 82.25.25 113.28-6.81 27-21.7 59.54-36.83 80.48-12.87 18.17-42.89 47.69-60.3 59.54-19.17 12.87-51.97 27.5-76.45 33.56-31.03 7.82-83.76 7.57-113.28-.25-84.02-22.45-149.36-87.8-171.31-171.82-7.06-26.74-8.07-74.93-2.02-103.44 19.18-92.34 90.32-164.5 182.16-184.43 26.99-6.05 80.73-5.04 105.96 1.77z"/>
  <path d="M161.77 166.18c-18.92 19.93-29.52 35.32-40.12 58.28-36.08 78.72-18.92 171.56 42.89 232.62 30.28 30.02 53.24 41.88 57.78 30.02 2.27-6.06-1.01-10.85-14.38-18.92-18.92-11.61-47.18-41.12-59.29-61.56-5.55-9.84-13.37-26.74-17.41-37.85-6.31-18.67-6.81-23.21-6.81-58.03 0-34.57.5-39.61 6.81-58.03 9.08-27.25 22.46-49.2 42.89-70.9 17.16-18.17 19.43-22.71 13.88-28.26-5.8-5.79-11.36-3.02-26.24 12.63z"/>
</svg>